UNKNOWN
version=1
nRows=100
nColumns=3
inDegrees=no
endheader
time	knee_angle_r	rect_fem_r
      0.00000000	   -119.99999986	      0.01890075
      1.00000000	   -118.68686855	      0.01923411
      2.00000000	   -117.37373723	      0.01957739
      3.00000000	   -116.06060592	      0.01992925
      4.00000000	   -114.74747460	      0.02028839
      5.00000000	   -113.43434329	      0.02065356
      6.00000000	   -112.12121198	      0.02102353
      7.00000000	   -110.80808066	      0.02139709
      8.00000000	   -109.49494935	      0.02177307
      9.00000000	   -108.18181803	      0.02215033
     10.00000000	   -106.86868672	      0.02252774
     11.00000000	   -105.55555540	      0.02290421
     12.00000000	   -104.24242409	      0.02327865
     13.00000000	   -102.92929277	      0.02365002
     14.00000000	   -101.61616146	      0.02401726
     15.00000000	   -100.30303015	      0.02437937
     16.00000000	    -98.98989883	      0.02473541
     17.00000000	    -97.67676752	      0.02508454
     18.00000000	    -96.36363620	      0.02542570
     19.00000000	    -95.05050489	      0.02575785
     20.00000000	    -93.73737357	      0.02607992
     21.00000000	    -92.42424226	      0.02639088
     22.00000000	    -91.11111094	      0.02668967
     23.00000000	    -89.79797963	      0.02697525
     24.00000000	    -88.48484831	      0.02724647
     25.00000000	    -87.17171700	      0.02750226
     26.00000000	    -85.85858569	      0.02774152
     27.00000000	    -84.54545437	      0.02796318
     28.00000000	    -83.23232306	      0.02793970
     29.00000000	    -81.91919174	      0.02877608
     30.00000000	    -80.60606043	      0.02958679
     31.00000000	    -79.29292911	      0.03037108
     32.00000000	    -77.97979780	      0.03113254
     33.00000000	    -76.66666648	      0.03187257
     34.00000000	    -75.35353517	      0.03259210
     35.00000000	    -74.04040385	      0.03329212
     36.00000000	    -72.72727254	      0.03397365
     37.00000000	    -71.41414123	      0.03463777
     38.00000000	    -70.10100991	      0.03528559
     39.00000000	    -68.78787860	      0.03591819
     40.00000000	    -67.47474728	      0.03653669
     41.00000000	    -66.16161597	      0.03714228
     42.00000000	    -64.84848465	      0.03773621
     43.00000000	    -63.53535334	      0.03831975
     44.00000000	    -62.22222202	      0.03889420
     45.00000000	    -60.90909071	      0.03946083
     46.00000000	    -59.59595939	      0.04002076
     47.00000000	    -58.28282808	      0.04057130
     48.00000000	    -56.96969677	      0.04111092
     49.00000000	    -55.65656545	      0.04163912
     50.00000000	    -54.34343414	      0.04215539
     51.00000000	    -53.03030282	      0.04265930
     52.00000000	    -51.71717151	      0.04315041
     53.00000000	    -50.40404019	      0.04362832
     54.00000000	    -49.09090888	      0.04409265
     55.00000000	    -47.77777756	      0.04454306
     56.00000000	    -46.46464625	      0.04497924
     57.00000000	    -45.15151493	      0.04540089
     58.00000000	    -43.83838362	      0.04580774
     59.00000000	    -42.52525231	      0.04619956
     60.00000000	    -41.21212099	      0.04657613
     61.00000000	    -39.89898968	      0.04693733
     62.00000000	    -38.58585836	      0.04729161
     63.00000000	    -37.27272705	      0.04764509
     64.00000000	    -35.95959573	      0.04799733
     65.00000000	    -34.64646442	      0.04834783
     66.00000000	    -33.33333310	      0.04869601
     67.00000000	    -32.02020179	      0.04904125
     68.00000000	    -30.70707048	      0.04938284
     69.00000000	    -29.39393916	      0.04970586
     70.00000000	    -28.08080785	      0.04995409
     71.00000000	    -26.76767653	      0.05013138
     72.00000000	    -25.45454522	      0.05024902
     73.00000000	    -24.14141390	      0.05031866
     74.00000000	    -22.82828259	      0.05035229
     75.00000000	    -21.51515127	      0.05036220
     76.00000000	    -20.20201996	      0.05036094
     77.00000000	    -18.88888864	      0.05031696
     78.00000000	    -17.57575733	      0.05016943
     79.00000000	    -16.26262602	      0.04993792
     80.00000000	    -14.94949470	      0.04964422
     81.00000000	    -13.63636339	      0.04931067
     82.00000000	    -12.32323207	      0.04895999
     83.00000000	    -11.01010076	      0.04861510
     84.00000000	     -9.69696944	      0.04830297
     85.00000000	     -8.38383813	      0.04813656
     86.00000000	     -7.07070681	      0.04813599
     87.00000000	     -5.75757550	      0.04827108
     88.00000000	     -4.44444418	      0.04851192
     89.00000000	     -3.13131287	      0.04882890
     90.00000000	     -1.81818156	      0.04919269
     91.00000000	     -0.50505024	      0.04957423
     92.00000000	      0.80808107	      0.04912876
     93.00000000	      2.12121239	      0.04821248
     94.00000000	      3.43434370	      0.04682040
     95.00000000	      4.74747502	      0.04480415
     96.00000000	      6.06060633	      0.04252236
     97.00000000	      7.37373765	      0.04068421
     98.00000000	      8.68686896	      0.03930025
     99.00000000	     10.00000028	      0.03836015
